# xmcd
#
# Track frame offsets:
#	150
#	20752
#	44250
#	70785
#	97295
#	115045
#	130255
#	149777
#	172795
#	190390
#
# Disc length: 2762 seconds
#
# Revision: 0
# Processed by: cddbd v1.5.1PL0 Copyright (c) Steve Scherf et al.
# Submitted via: dBpowerAMP V4.0
#
DISCID=930ac80a
DTITLE=Billylee Janey - Just Got Lucky
DYEAR=1995
DGENRE=Blues
TTITLE0=Jump Start Your Motor
TTITLE1=Little Bo Peep
TTITLE2=Toaster Oven
TTITLE3=Strawberry Wine
TTITLE4=But A Good Song
TTITLE5=I'm Your Rooster
TTITLE6=Just Got Lucky
TTITLE7=Tisket A Tasket
TTITLE8=Baby What's Wrong
TTITLE9=Going Back Home
EXTD=
EXTT0=
EXTT1=
EXTT2=
EXTT3=
EXTT4=
EXTT5=
EXTT6=
EXTT7=
EXTT8=
EXTT9=
PLAYORDER=
